<svg id="Layer_1" data-name="Layer 1" xmlns="http://www.w3.org/2000/svg" viewBox="0 0 41.72 43.07"><defs><style>.cls-1{fill:#b1d5e5;}.cls-1,.cls-2,.cls-3,.cls-4{opacity:0.25;}.cls-2{fill:#86c0d7;}.cls-3{fill:#007ba4;}.cls-4{fill:#199ec0;}</style></defs><title>logoelement_proveko-transparant</title><path class="cls-1" d="M0,16.15a6.24,6.24,0,0,1,2.19-4.52L6.58,8.16S8.77,6.43,8.77,9.22V32.64A2.32,2.32,0,0,1,6.49,35H2.79A2.73,2.73,0,0,1,0,32.33H0V16.15Z" transform="translate(0 0.01)"/><path class="cls-2" d="M16.93,39.47a2.73,2.73,0,0,0,2.79-2.67h0V1.68s0-2.88-2.19-1.11l-4.4,3.49a6.26,6.26,0,0,0-2.2,4.53V36.68a2.73,2.73,0,0,0,2.67,2.79h3.33Z" transform="translate(0 0.01)"/><path class="cls-3" d="M41.69,27a6.24,6.24,0,0,1-2.19,4.52L35.11,35s-2.18,1.73-2.18-1.06V10.47a2.32,2.32,0,0,1,2.28-2.36h3.72a2.74,2.74,0,0,1,2.79,2.69h0v.1Z" transform="translate(0 0.01)"/><path class="cls-4" d="M24.73,3.64a2.73,2.73,0,0,0-2.8,2.66h0V41.43s0,2.82,2.2,1.06L28.53,39a6.26,6.26,0,0,0,2.19-4.53v-28a2.73,2.73,0,0,0-2.67-2.79H24.73Z" transform="translate(0 0.01)"/></svg>