<svg id="Layer_1" data-name="Layer 1" xmlns="http://www.w3.org/2000/svg" viewBox="0 0 41.69 21.68"><defs><style>.cls-1{fill:#b1d5e5;}.cls-2{fill:#86c0d7;}.cls-3{fill:#007ba4;}.cls-4{fill:#199ec0;}</style></defs><title>logo_element_proveko</title><path class="cls-1" d="M20.07,46.85a6.24,6.24,0,0,1,2.19-4.52l4.39-3.47s2.19-1.73,2.19,1.06V52.38H20.07Z" transform="translate(-20.07 -30.71)"/><path class="cls-2" d="M37.06,52.38h2.75V32.33s0-2.79-2.19-1.06l-4.4,3.49A6.26,6.26,0,0,0,31,39.29V52.38h6Z" transform="translate(-20.07 -30.71)"/><path class="cls-3" d="M61.76,52.38H53V41.17a2.32,2.32,0,0,1,2.36-2.36H59a2.74,2.74,0,0,1,2.79,2.79Z" transform="translate(-20.07 -30.71)"/><path class="cls-4" d="M44.8,34.34A2.73,2.73,0,0,0,42,37.13V52.38h8.78V37.13A2.73,2.73,0,0,0,48,34.34Z" transform="translate(-20.07 -30.71)"/><path class="cls-4" d="M48.6,52.38h2.19V37.13" transform="translate(-20.07 -30.71)"/></svg>