<svg id="Layer_1" data-name="Layer 1" xmlns="http://www.w3.org/2000/svg" viewBox="0 0 240.52 43.59"><defs><style>.cls-1{fill:#b1d5e5;}.cls-2{fill:#86c0d7;}.cls-3{fill:#007ba4;}.cls-4{fill:#199ec0;}.cls-5{fill:#4a4a49;}</style></defs><title>logo_proveko</title><path class="cls-1" d="M20.07,46.85a6.24,6.24,0,0,1,2.19-4.52l4.39-3.47s2.19-1.73,2.19,1.06V63.34a2.32,2.32,0,0,1-2.36,2.36H22.86a2.73,2.73,0,0,1-2.79-2.79Z" transform="translate(-20.07 -30.5)"/><path class="cls-2" d="M37,70.17a2.73,2.73,0,0,0,2.79-2.79V32.33s0-2.79-2.19-1.06l-4.4,3.49A6.26,6.26,0,0,0,31,39.29V67.38a2.73,2.73,0,0,0,2.79,2.79Z" transform="translate(-20.07 -30.5)"/><path class="cls-3" d="M61.76,57.67a6.24,6.24,0,0,1-2.19,4.52l-4.39,3.47S53,67.39,53,64.6V41.17a2.32,2.32,0,0,1,2.36-2.36H59a2.74,2.74,0,0,1,2.79,2.79Z" transform="translate(-20.07 -30.5)"/><path class="cls-4" d="M44.8,34.34A2.73,2.73,0,0,0,42,37.13V72.18S42,75,44.2,73.24l4.4-3.49a6.26,6.26,0,0,0,2.19-4.53V37.13A2.73,2.73,0,0,0,48,34.34Z" transform="translate(-20.07 -30.5)"/><path class="cls-5" d="M70.39,35a3.91,3.91,0,0,1,3.93-3.87h10.1C92,31.1,97.23,36.3,97.23,44S92.15,56.67,84.42,56.67H76.8V70.88a3.27,3.27,0,0,1-3.2,3.21,3.23,3.23,0,0,1-3.2-3.21Zm14,15.6c3,0,6.41-1.27,6.41-6.53,0-4.23-2.24-6.83-6.41-6.83H76.8V50.57Z" transform="translate(-20.07 -30.5)"/><path class="cls-5" d="M102.74,51.23a8.81,8.81,0,0,1,9-9,23.12,23.12,0,0,1,4.53.48,3,3,0,0,1,2.48,3,2.84,2.84,0,0,1-3,2.9,3.37,3.37,0,0,1-1-.12,13.11,13.11,0,0,0-3-.48A2.81,2.81,0,0,0,109,50.75V70.94a3.11,3.11,0,1,1-6.23,0Z" transform="translate(-20.07 -30.5)"/><path class="cls-5" d="M146.93,61.39a12.7,12.7,0,1,1-25.39,0V54.92a12.7,12.7,0,1,1,25.39,0Zm-6.23-7A6.09,6.09,0,0,0,134.23,48c-4.11,0-6.47,2.36-6.47,6.47v7.5c0,4.05,2.36,6.41,6.47,6.41s6.47-2.36,6.47-6.41Z" transform="translate(-20.07 -30.5)"/><path class="cls-5" d="M150.38,46.4a3.07,3.07,0,0,1-.18-1,3.19,3.19,0,0,1,3.08-3.14,3.1,3.1,0,0,1,3,2.06L162.83,64l6.11-19.71a3.11,3.11,0,0,1,2.9-2.12,3.21,3.21,0,0,1,3.2,3.14,2.74,2.74,0,0,1-.18,1l-8.58,25.27a3.57,3.57,0,0,1-3.38,2.48,3.88,3.88,0,0,1-3.33-2.36Z" transform="translate(-20.07 -30.5)"/><path class="cls-5" d="M184.53,61.09c0,2.48.42,4.11,1.21,5.2a5.58,5.58,0,0,0,4.66,2.05,16.18,16.18,0,0,0,6.53-1.57,3.28,3.28,0,0,1,1.27-.3,3,3,0,0,1,3,2.84A2.87,2.87,0,0,1,199.59,72a21,21,0,0,1-9.19,2.06,11.52,11.52,0,0,1-12.09-12.15V54.31A11.51,11.51,0,0,1,190.4,42.22a11.84,11.84,0,0,1,8.77,3.39,12,12,0,0,1,3.39,8.71v2.84a3.92,3.92,0,0,1-3.93,3.93Zm11.79-5.74c0-5-2.06-7.37-5.92-7.37s-5.86,2.3-5.86,7.38Z" transform="translate(-20.07 -30.5)"/><path class="cls-5" d="M215.37,60.48V70.94a3.11,3.11,0,1,1-6.23,0V33.64a3.11,3.11,0,1,1,6.23,0V53l10.76-10a3,3,0,0,1,2.18-.85,3.1,3.1,0,0,1,3,3.14,3,3,0,0,1-1,2.24L220,56.79l11,12.09a2.87,2.87,0,0,1,.73,2.05A3.09,3.09,0,0,1,226.25,73Z" transform="translate(-20.07 -30.5)"/><path class="cls-5" d="M260.59,61.39a12.7,12.7,0,1,1-25.39,0V54.92a12.7,12.7,0,1,1,25.39,0Zm-6.23-7A6.09,6.09,0,0,0,247.89,48c-4.11,0-6.47,2.36-6.47,6.47v7.5c0,4.05,2.36,6.41,6.47,6.41s6.47-2.36,6.47-6.41Z" transform="translate(-20.07 -30.5)"/></svg>